<svg version="1.0" xmlns="http://www.w3.org/2000/svg" width="256" height="256" viewBox="0 0 192 192"><path d="M0 96v96h192V0H0v96zm61.8-28.1c22.8 10.2 22.7 45.9-.2 56.3-4.6 2.1-6.8 2.3-23.8 2.6l-18.8.4v-3.6c0-3.3.3-3.6 2.8-3.6 5 0 5.2-.7 5.2-24.2 0-20.5-.1-21.8-1.9-22.8-1.1-.5-2.9-1-4-1-1.7 0-2.1-.6-2.1-3.6v-3.6l18.8.4c17 .3 19.2.6 24 2.7zm64.1-.4c4.9 2.9 7.3 6.7 7.9 12.3.5 5.6-1.4 10.2-5.4 12.8l-2.5 1.7 2.9 1.7c8.9 5.4 10.5 16.7 3.7 24.9-4.3 5-9.6 6.1-29.7 6.1H85v-3.4c0-3.3.2-3.5 3.8-3.8l3.7-.3.3-22.9c.3-24.7.3-24.6-5-24.6-2.5 0-2.8-.3-2.8-3.6v-3.6l18.8.4c16.5.3 19.1.5 22.1 2.3zm47.9 33.7l-.3 4.3-14.2.3-14.3.3V97h29.1l-.3 4.2z"/><path d="M37 96.1v23.1l9.3-.4c8.4-.3 9.7-.6 13-3.1 7-5.4 10-15.9 7.7-27-2.2-10.8-9-15.6-22.2-15.7H37v23.1zm67-14v9.1l7.4-.4c8.3-.4 11-1.9 12-6.8.7-3.6-1-8.7-3.4-10-1-.6-5-1-8.9-1H104v9.1zm0 26.3V119h8.3c7 0 8.7-.3 10.5-2 2.8-2.6 3.7-6.4 2.6-10.8-1.4-5.3-4.9-7.4-13.8-8l-7.6-.5v10.7z"/></svg>