<?xml version="1.0" standalone="no"?>
<!DOCTYPE svg PUBLIC "-//W3C//DTD SVG 20010904//EN"
 "http://www.w3.org/TR/2001/REC-SVG-20010904/DTD/svg10.dtd">
<svg version="1.0" xmlns="http://www.w3.org/2000/svg"
 width="192.000000pt" height="192.000000pt" viewBox="0 0 192.000000 192.000000"
 preserveAspectRatio="xMidYMid meet">
<metadata>
Created by potrace 1.14, written by Peter Selinger 2001-2017
</metadata>
<g transform="translate(0.000000,192.000000) scale(0.100000,-0.100000)"
fill="#000000" stroke="none">
<path d="M0 960 l0 -960 960 0 960 0 0 960 0 960 -960 0 -960 0 0 -960z m618
281 c228 -102 227 -459 -2 -563 -46 -21 -68 -23 -238 -26 l-188 -4 0 36 c0 33
3 36 28 36 50 0 52 7 52 242 0 205 -1 218 -19 228 -11 5 -29 10 -40 10 -17 0
-21 6 -21 36 l0 36 188 -4 c170 -3 192 -6 240 -27z m641 4 c49 -29 73 -67 79
-123 5 -56 -14 -102 -54 -128 l-25 -17 29 -17 c89 -54 105 -167 37 -249 -43
-50 -96 -61 -297 -61 l-178 0 0 34 c0 33 2 35 38 38 l37 3 3 229 c3 247 3 246
-50 246 -25 0 -28 3 -28 36 l0 36 188 -4 c165 -3 191 -5 221 -23z m479 -337
l-3 -43 -142 -3 -143 -3 0 46 0 45 146 0 145 0 -3 -42z"/>
<path d="M370 959 l0 -231 93 4 c84 3 97 6 130 31 70 54 100 159 77 270 -22
108 -90 156 -222 157 l-78 0 0 -231z"/>
<path d="M1040 1099 l0 -91 74 4 c83 4 110 19 120 68 7 36 -10 87 -34 100 -10
6 -50 10 -89 10 l-71 0 0 -91z"/>
<path d="M1040 836 l0 -106 83 0 c70 0 87 3 105 20 28 26 37 64 26 108 -14 53
-49 74 -138 80 l-76 5 0 -107z"/>
</g>
</svg>
