<svg width="89" height="30" fill="none" xmlns="http://www.w3.org/2000/svg"><path d="M15.786.726a2609.39 2609.39 0 002.467 5.826c.99 2.299 2.006 4.664 3.05 7.097a954.984 954.984 0 013.048 7.097c.99 2.298 1.826 4.234 2.508 5.806.2.498.594.948 1.183 1.351.307.202.608.37.903.504.307.135.555.262.742.383.133.094.22.189.26.283a.36.36 0 01.04.16.324.324 0 01-.04.142c-.04.08-.12.121-.24.121h-6.78c-.12 0-.24-.04-.361-.121-.134-.094-.214-.195-.24-.302a.218.218 0 01-.04-.121c0-.121.08-.249.24-.383a4.56 4.56 0 01.441-.383 1.15 1.15 0 00.381-.545c.04-.107.06-.228.06-.363a2.03 2.03 0 00-.16-.746l-2.969-6.895H8.585l-1.444 3.468a371.648 371.648 0 01-1.424 3.427c-.12.27-.188.511-.2.726a1.91 1.91 0 00-.02.282c0 .135.02.262.06.383.04.175.106.323.2.444.093.107.16.222.2.343.014.107.02.181.02.221 0 .04-.013.088-.04.142-.093.282-.24.423-.44.423H.32c-.134 0-.227-.04-.28-.121a.356.356 0 00-.041-.1c0-.028.013-.095.04-.202.08-.175.308-.35.682-.525.2-.094.415-.194.642-.302.24-.121.481-.262.722-.423.495-.35.856-.773 1.083-1.27L14.542.725h1.244zm3.791 17.278L14.342 5.726c-.856 2.056-1.712 4.106-2.568 6.149l-2.527 6.129h10.33zm19.457-.504v9.052c0 .874.328 1.432.983 1.674.668.228 1.003.51 1.003.847 0 .282-.134.423-.401.423h-6.8c-.281 0-.421-.141-.421-.423 0-.336.334-.619 1.002-.847.67-.242 1.003-.8 1.003-1.674V13.65c0-.847-.334-1.39-1.002-1.633-.67-.242-1.003-.537-1.003-.887 0-.282.14-.423.42-.423.883-.04 1.753-.175 2.608-.404.87-.242 1.739-.51 2.608-.806v2.661l2.788-1.068c1.03-.39 1.832-.68 2.407-.867.174-.054.381-.08.622-.08.495 0 1.123.133 1.886.402l-.442 5.06h-.922c-.522-1.961-1.525-2.943-3.01-2.943a5 5 0 00-.44.02c-1.017.121-1.746.646-2.187 1.573-.428.914-.662 1.996-.702 3.246zm19.738-7.278h.42c2.18 0 4.187.591 6.018 1.774l-.34 3.407c-.027.175-.114.262-.261.262h-.06c-.134-.013-.255-.147-.362-.403-.534-1.17-1.236-2.016-2.106-2.54-.856-.511-1.899-.766-3.129-.766h-.481c-1.458.08-2.588.504-3.39 1.27a6.369 6.369 0 00-1.565 2.52c-.347.981-.521 2.077-.521 3.286 0 .404.02.813.06 1.23.134 2.003.675 3.643 1.625 4.92 1.243 1.68 2.634 2.634 4.172 2.862.254.04.515.06.782.06 1.204 0 2.534-.402 3.992-1.209.762-.416 1.277-.625 1.544-.625a.29.29 0 01.16.04c.028.027.041.081.041.162 0 .161-.08.416-.24.766-.201.403-.429.719-.683.948-.762.685-1.698 1.155-2.808 1.41-1.11.27-2.166.404-3.17.404-2.486-.013-4.58-.706-6.277-2.077-1.685-1.384-2.642-3.36-2.869-5.927-.053-.591-.08-1.17-.08-1.734 0-.726.047-1.431.14-2.117.174-1.183.629-2.365 1.364-3.548.776-1.25 1.852-2.272 3.23-3.065 1.39-.793 2.988-1.23 4.794-1.31zm14.703 16.33c0 .874.334 1.432 1.003 1.674.668.228 1.003.51 1.003.847 0 .282-.134.423-.402.423h-6.8c-.28 0-.42-.141-.42-.423 0-.336.334-.619 1.002-.847.669-.242 1.003-.8 1.003-1.674V4.153c0-.86-.334-1.411-1.003-1.653-.668-.242-1.003-.538-1.003-.887 0-.282.14-.423.421-.423.883-.04 1.752-.175 2.608-.404.87-.228 1.732-.49 2.588-.786v12.298l1.945-.746a50.03 50.03 0 011.605-.584c1.23-.43 2.507-.713 3.831-.847.16-.014.328-.02.502-.02 1.123 0 2.193.383 3.209 1.149 1.618 1.25 2.427 3.931 2.427 8.044v7.258c0 .874.334 1.432 1.003 1.674.669.228 1.003.51 1.003.847 0 .282-.134.423-.401.423h-4.874c-.228 0-.341-.087-.341-.262v-9.94c0-2.943-.609-5.013-1.826-6.21-.775-.765-1.725-1.149-2.848-1.149-.642 0-1.344.128-2.106.383-.294.108-.669.25-1.123.424-.442.161-.823.302-1.144.423-.32.121-.608.229-.862.323v13.064z" fill="#000" fill-opacity=".3"/></svg>