<svg width="123" height="24" fill="none" xmlns="http://www.w3.org/2000/svg"><path d="M8.92 0c2.51 0 4.702.501 6.579 1.504 1.876 1.003 3.323 2.416 4.34 4.24C20.88 7.544 21.4 9.63 21.4 12c0 2.348-.52 4.433-1.56 6.256-1.017 1.824-2.475 3.237-4.374 4.24C13.588 23.499 11.406 24 8.919 24H0V0h8.92zm-.374 18.94c2.194 0 3.9-.604 5.121-1.812C14.888 15.92 15.5 14.211 15.5 12c0-2.21-.61-3.932-1.832-5.162-1.22-1.231-2.928-1.847-5.12-1.847h-2.75v13.95h2.747zm22.267.274h10.242V24H24.234v-4.444l10.174-14.77H24.234V0h16.821v4.444l-10.242 14.77zM50.643 0v24h-5.8V0h5.8zm18.006 24l-8.004-10.598V24h-5.8V0h5.8v10.53L68.581 0h6.817l-9.225 11.76L75.737 24h-7.088zm21.985 0l-4.951-9.06h-1.39V24h-5.8V0h9.733c1.877 0 3.47.33 4.782.991 1.334.661 2.329 1.573 2.985 2.735.655 1.14.983 2.416.983 3.83 0 1.595-.452 3.02-1.356 4.273-.882 1.254-2.194 2.143-3.934 2.667L97.18 24h-6.546zm-6.342-13.197h3.595c1.063 0 1.854-.262 2.374-.786.543-.524.814-1.265.814-2.222 0-.912-.271-1.63-.814-2.154-.52-.524-1.311-.786-2.374-.786h-3.595v5.948zm31.145 8.957h-8.885L105.127 24h-6.07l8.614-24h6.715L123 24h-6.138l-1.425-4.24zm-1.492-4.512l-2.951-8.786-2.916 8.786h5.867z" fill="#000" fill-opacity=".3"/></svg>