<svg width="214" height="28" fill="none" xmlns="http://www.w3.org/2000/svg"><path d="M5.037 27.848c-1.704 0-3.305-.239-4.803-.716 0-.51.119-1.226.357-2.146.239-.954.528-1.754.869-2.401 1.124.954 2.214 1.72 3.27 2.3 1.09.544 1.993.817 2.708.817.477-.341.818-.886 1.022-1.635.239-.75.392-1.993.46-3.73.068-1.772.102-4.582.102-8.431 0-6.064-.34-9.93-1.022-11.6C8.92.103 9.857 0 10.81 0c.886 0 1.857.102 2.913.307-.238 2.282-.358 7.392-.358 15.329 0 8.141-2.776 12.212-8.328 12.212zm16.747.153a23.486 23.486 0 00-3.679-3.679 22.388 22.388 0 013.679-3.73c.92 1.124 2.146 2.367 3.679 3.73-1.226 1.465-2.453 2.691-3.679 3.679zm16.196-.204c-2.76 0-4.889-.886-6.387-2.657-1.5-1.806-2.249-4.36-2.249-7.665 0-2.248.443-4.24 1.329-5.978.92-1.772 2.197-3.151 3.832-4.14 1.635-.987 3.492-1.48 5.57-1.48 2.384 0 4.411.408 6.08 1.225 0 .58-.17 1.329-.51 2.249-.307.885-.665 1.652-1.074 2.3-1.362-1.16-2.657-2.045-3.883-2.658-1.227-.647-2.248-.97-3.066-.97-1.022.578-1.874 1.617-2.555 3.116-.681 1.465-1.022 3.083-1.022 4.854 0 2.93.46 5.025 1.38 6.285.954 1.26 2.52 1.89 4.7 1.89 2.487 0 4.6-.63 6.337-1.89l.408.869c-.987 1.397-2.299 2.52-3.934 3.372-1.635.852-3.287 1.278-4.956 1.278zm21.721 0c-2.793 0-5.041-.954-6.744-2.862-1.704-1.907-2.555-4.411-2.555-7.511 0-2.248.46-4.241 1.38-5.978.953-1.772 2.265-3.134 3.934-4.088 1.703-.988 3.628-1.482 5.774-1.482 1.907 0 3.594.443 5.058 1.329 1.465.851 2.59 2.06 3.373 3.627.817 1.567 1.226 3.373 1.226 5.417 0 2.248-.494 4.258-1.482 6.03a10.36 10.36 0 01-4.036 4.087c-1.738.954-3.713 1.43-5.928 1.43zm.92-2.146c1.942 0 3.458-.648 4.548-1.942 1.09-1.329 1.635-3.185 1.635-5.57 0-2.112-.494-3.934-1.482-5.467-.988-1.533-2.35-2.572-4.088-3.117-1.976 0-3.56.681-4.752 2.044-1.158 1.329-1.737 3.134-1.737 5.416 0 2.657.545 4.77 1.635 6.336 1.124 1.533 2.538 2.3 4.241 2.3zm20.449 1.89c-.715 0-1.668-.102-2.86-.306.238-3.407.357-7.035.357-10.884 0-1.874-.068-3.304-.204-4.292-.103-.988-.29-1.771-.563-2.35-.238-.58-.647-1.176-1.226-1.789.545-.647 1.124-1.107 1.737-1.38.613-.306 1.176-.46 1.687-.46 1.805 0 2.844 1.022 3.117 3.066a9.695 9.695 0 013.116-2.401c1.227-.58 2.47-.869 3.73-.869 3.986 0 5.979 2.35 5.979 7.051l-.102 3.22a42.71 42.71 0 00-.154 3.423c0 3.509.358 6.064 1.073 7.665-.954.204-1.856.306-2.708.306-.886 0-1.907-.102-3.066-.306.239-4.122.358-8.585.358-13.388 0-1.362-.272-2.333-.817-2.912-.546-.613-1.448-.92-2.709-.92-1.873 0-3.423.392-4.65 1.175l-.05 2.197c-.103 1.738-.154 3.799-.154 6.183 0 3.577.34 6.132 1.022 7.665a14.867 14.867 0 01-2.912.306zm28.535.256c-3.202 0-5.774-.614-7.716-1.84 0-.647.068-1.26.205-1.84.136-.578.374-1.209.715-1.89.647.852 1.499 1.516 2.555 1.993a8.573 8.573 0 003.475.715c3.236 0 4.854-.902 4.854-2.708 0-.75-.375-1.38-1.124-1.89-.716-.511-1.823-1.09-3.322-1.738-1.499-.681-2.708-1.277-3.628-1.788a8.157 8.157 0 01-2.401-2.197c-.681-.92-1.022-2.044-1.022-3.373 0-1.6.698-2.895 2.095-3.883 1.431-.988 3.287-1.482 5.569-1.482 3.032 0 5.621.409 7.767 1.226 0 .545-.153 1.278-.46 2.198a11.97 11.97 0 01-1.124 2.401c-1.226-1.124-2.418-2.01-3.577-2.657-1.158-.681-2.129-1.022-2.912-1.022-.818.17-1.482.494-1.993.971-.511.443-.766.937-.766 1.482 0 .954.391 1.72 1.175 2.3.783.578 2.01 1.26 3.679 2.043 1.396.613 2.538 1.192 3.423 1.737a6.767 6.767 0 012.3 2.095c.647.852.971 1.89.971 3.117 0 1.908-.767 3.39-2.3 4.446-1.499 1.056-3.645 1.584-6.438 1.584zm18.531-.102c-1.192 0-2.027-.29-2.503-.87-.477-.612-.716-1.668-.716-3.167 0-1.056.034-2.777.102-5.161.069-2.589.103-4.735.103-6.438 0-.818-.034-1.601-.103-2.35-1.362 0-2.282-.086-2.759-.256-.443-.204-.664-.545-.664-1.022 2.214-1.26 4.309-2.98 6.285-5.16l1.226.152A40.23 40.23 0 01129.363 7c2.282-.034 3.951-.17 5.007-.409 0 .716-.068 1.346-.204 1.891a7.536 7.536 0 01-.665 1.686c-.987-.374-2.401-.579-4.241-.613a72.412 72.412 0 00-.153 4.803c0 4.19.256 7.375.767 9.555 1.567-.102 2.827-.29 3.781-.562l.306 1.175c-.613.954-1.464 1.72-2.554 2.3-1.091.579-2.181.869-3.271.869zm15.211-.154c-.851 0-1.839-.102-2.963-.306.238-3.407.357-7.035.357-10.884 0-1.874-.068-3.304-.204-4.292-.102-.988-.29-1.771-.562-2.35-.239-.58-.647-1.176-1.227-1.789.546-.613 1.142-1.073 1.789-1.38.647-.306 1.226-.46 1.737-.46 1.942 0 2.964 1.26 3.066 3.782.886-1.09 1.822-1.976 2.81-2.657 1.022-.716 2.18-1.244 3.475-1.584.238.545.443 1.328.613 2.35.204 1.022.307 1.959.307 2.81-.409-.068-.988-.102-1.738-.102-1.09 0-2.129.136-3.117.409-.987.239-1.788.545-2.401.92l-.051 1.584a200.238 200.238 0 00-.102 5.978c0 3.577.34 6.132 1.022 7.665-1.022.204-1.959.306-2.811.306zm19.309.256c-3.917 0-5.876-2.35-5.876-7.052l.102-3.219.102-3.423c0-3.339-.323-5.723-.97-7.154 1.669-.681 3.542-1.022 5.62-1.022-.204 4.156-.306 8.925-.306 14.307 0 1.363.289 2.368.868 3.015.579.613 1.516.92 2.811.92 1.669 0 3.185-.392 4.547-1.175 0-2.283.051-4.31.154-6.081l.051-2.81c0-3.339-.324-5.723-.971-7.154 1.669-.681 3.56-1.022 5.672-1.022-.137 2.35-.273 5.144-.409 8.38-.136 3.202-.205 5.348-.205 6.438 0 1.227.137 2.197.409 2.913.273.715.801 1.482 1.584 2.3-1.226 1.021-2.589 1.634-4.088 1.839-1.022-.716-1.686-1.738-1.992-3.066-.92.954-2.01 1.703-3.271 2.248a9.333 9.333 0 01-3.832.818zm26.219 0c-2.759 0-4.888-.886-6.387-2.657-1.499-1.806-2.249-4.36-2.249-7.665 0-2.248.443-4.24 1.329-5.978.92-1.772 2.197-3.151 3.832-4.14 1.635-.987 3.492-1.48 5.57-1.48 2.384 0 4.411.408 6.08 1.225 0 .58-.17 1.329-.511 2.249-.306.885-.664 1.652-1.073 2.3-1.362-1.16-2.657-2.045-3.883-2.658-1.226-.647-2.248-.97-3.066-.97-1.022.578-1.873 1.617-2.555 3.116-.681 1.465-1.022 3.083-1.022 4.854 0 2.93.46 5.025 1.38 6.285.954 1.26 2.521 1.89 4.701 1.89 2.487 0 4.599-.63 6.336-1.89l.409.869c-.988 1.397-2.3 2.52-3.935 3.372-1.635.852-3.287 1.278-4.956 1.278zm18.451-.102c-1.192 0-2.027-.29-2.503-.87-.477-.612-.716-1.668-.716-3.167 0-1.056.034-2.777.102-5.161.069-2.589.103-4.735.103-6.438 0-.818-.034-1.601-.103-2.35-1.362 0-2.282-.086-2.759-.256-.443-.204-.664-.545-.664-1.022 2.214-1.26 4.309-2.98 6.285-5.16l1.226.152A40.23 40.23 0 01208.553 7c2.282-.034 3.951-.17 5.007-.409 0 .716-.068 1.346-.204 1.891a7.579 7.579 0 01-.664 1.686c-.988-.374-2.402-.579-4.242-.613a72.412 72.412 0 00-.153 4.803c0 4.19.256 7.375.767 9.555 1.567-.102 2.827-.29 3.781-.562l.306 1.175c-.613.954-1.464 1.72-2.554 2.3-1.091.579-2.181.869-3.271.869z" fill="#000" fill-opacity=".3"/></svg>