<svg width="127" height="28" fill="none" xmlns="http://www.w3.org/2000/svg"><path d="M7.562 19.38l.502 3.456.735-3.114 5.16-18.282h2.904l5.035 18.282.717 3.168.556-3.527L27.22 1.44h3.458l-6.325 26.2h-3.137L15.841 8.548 15.43 6.55l-.412 1.998L9.444 27.64H6.308L0 1.44h3.44l4.122 17.94zm29.748-8.853c1.47-1.811 3.38-2.717 5.734-2.717 4.098 0 6.165 2.321 6.2 6.964V27.64H45.93V14.756c-.012-1.404-.334-2.441-.967-3.113-.622-.672-1.595-1.008-2.921-1.008-1.076 0-2.02.288-2.832.864a5.859 5.859 0 00-1.9 2.267V27.64h-3.314V0h3.315v10.527zm20.5 17.113h-3.315V8.17h3.315v19.47zM54.226 3.005c0-.54.162-.996.484-1.367.335-.372.825-.558 1.47-.558s1.135.186 1.47.558c.334.371.5.827.5 1.367s-.166.99-.5 1.35c-.335.36-.825.54-1.47.54s-1.135-.18-1.47-.54c-.322-.36-.484-.81-.484-1.35zm15.412 12.273l4.3-7.108h3.871l-6.343 9.627 6.54 9.843h-3.835l-4.48-7.288-4.48 7.288H61.36l6.54-9.843-6.343-9.627h3.835l4.247 7.108zm11.773 10.617c0-.576.167-1.056.502-1.44.346-.384.86-.576 1.541-.576.681 0 1.195.192 1.541.576.359.384.538.864.538 1.44 0 .551-.18 1.013-.538 1.385-.346.372-.86.558-1.54.558-.682 0-1.196-.186-1.542-.558-.335-.372-.502-.834-.502-1.385zm17.383-.612c1.182 0 2.216-.36 3.1-1.08.884-.72 1.374-1.62 1.469-2.7h3.136c-.059 1.116-.442 2.178-1.147 3.186-.704 1.008-1.648 1.811-2.831 2.411a8.06 8.06 0 01-3.727.9c-2.64 0-4.743-.882-6.308-2.645-1.553-1.776-2.33-4.199-2.33-7.27v-.558c0-1.896.347-3.581 1.04-5.057.692-1.475 1.684-2.62 2.974-3.437 1.302-.815 2.838-1.223 4.606-1.223 2.174 0 3.978.654 5.412 1.961 1.445 1.308 2.216 3.005 2.311 5.093h-3.136c-.095-1.26-.573-2.292-1.433-3.095-.848-.816-1.9-1.224-3.154-1.224-1.685 0-2.993.612-3.925 1.835-.92 1.212-1.38 2.97-1.38 5.273v.63c0 2.243.46 3.97 1.38 5.182.92 1.212 2.234 1.818 3.943 1.818zm10.555-7.558c0-1.908.37-3.623 1.111-5.147.752-1.523 1.792-2.699 3.118-3.527 1.338-.827 2.861-1.241 4.569-1.241 2.641 0 4.773.918 6.398 2.753 1.637 1.835 2.455 4.277 2.455 7.324v.234c0 1.895-.364 3.599-1.093 5.11-.717 1.5-1.75 2.67-3.1 3.51-1.338.84-2.879 1.259-4.624 1.259-2.628 0-4.76-.918-6.397-2.753-1.625-1.836-2.437-4.265-2.437-7.288v-.234zm3.333.396c0 2.16.496 3.893 1.487 5.2 1.004 1.308 2.342 1.962 4.014 1.962 1.685 0 3.023-.66 4.014-1.98.992-1.331 1.488-3.19 1.488-5.578 0-2.136-.508-3.863-1.523-5.183-1.004-1.331-2.342-1.997-4.015-1.997-1.636 0-2.956.654-3.96 1.961-1.003 1.308-1.505 3.18-1.505 5.615z" fill="#000" fill-opacity=".3"/></svg>